ffmpeg version 6.1.1-3ubuntu5 Copyright (c) 2000-2023 the FFmpeg developers
  built with gcc 13 (Ubuntu 13.2.0-23ubuntu3)
  configuration: --prefix=/usr --extra-version=3ubuntu5 --toolchain=hardened --libdir=/usr/lib/x86_64-linux-gnu --incdir=/usr/include/x86_64-linux-gnu --arch=amd64 --enable-gpl --disable-stripping --disable-omx --enable-gnutls --enable-libaom --enable-libass --enable-libbs2b --enable-libcaca --enable-libcdio --enable-libcodec2 --enable-libdav1d --enable-libflite --enable-libfontconfig --enable-libfreetype --enable-libfribidi --enable-libglslang --enable-libgme --enable-libgsm --enable-libharfbuzz --enable-libmp3lame --enable-libmysofa --enable-libopenjpeg --enable-libopenmpt --enable-libopus --enable-librubberband --enable-libshine --enable-libsnappy --enable-libsoxr --enable-libspeex --enable-libtheora --enable-libtwolame --enable-libvidstab --enable-libvorbis --enable-libvpx --enable-libwebp --enable-libx265 --enable-libxml2 --enable-libxvid --enable-libzimg --enable-openal --enable-opencl --enable-opengl --disable-sndio --enable-libvpl --disable-libmfx --enable-libdc1394 --enable-libdrm --enable-libiec61883 --enable-chromaprint --enable-frei0r --enable-ladspa --enable-libbluray --enable-libjack --enable-libpulse --enable-librabbitmq --enable-librist --enable-libsrt --enable-libssh --enable-libsvtav1 --enable-libx264 --enable-libzmq --enable-libzvbi --enable-lv2 --enable-sdl2 --enable-libplacebo --enable-librav1e --enable-pocketsphinx --enable-librsvg --enable-libjxl --enable-shared
  libavutil      58. 29.100 / 58. 29.100
  libavcodec     60. 31.102 / 60. 31.102
  libavformat    60. 16.100 / 60. 16.100
  libavdevice    60.  3.100 / 60.  3.100
  libavfilter     9. 12.100 /  9. 12.100
  libswscale      7.  5.100 /  7.  5.100
  libswresample   4. 12.100 /  4. 12.100
  libpostproc    57.  3.100 / 57.  3.100
Splitting the commandline.
Reading option '-y' ... matched as option 'y' (overwrite output files) with argument '1'.
Reading option '-loglevel' ... matched as option 'loglevel' (set logging level) with argument 'debug'.
Reading option '-f' ... matched as option 'f' (force format) with argument 'rawvideo'.
Reading option '-pixel_format' ... matched as AVOption 'pixel_format' with argument 'bgr24'.
Reading option '-video_size' ... matched as AVOption 'video_size' with argument '640x480'.
Reading option '-r' ... matched as option 'r' (set frame rate (Hz value, fraction or abbreviation)) with argument '30'.
Reading option '-i' ... matched as output url with argument '-'.
Reading option '-c:v' ... matched as option 'c' (codec name) with argument 'libx264'.
Reading option '-pix_fmt' ... matched as option 'pix_fmt' (set pixel format) with argument 'yuv420p'.
Reading option './../video/output_23-39-16-08-08-2024.mp4' ... matched as output url.
Finished splitting the commandline.
Parsing a group of options: global .
Applying option y (overwrite output files) with argument 1.
Applying option loglevel (set logging level) with argument debug.
Successfully parsed a group of options.
Parsing a group of options: input url -.
Applying option f (force format) with argument rawvideo.
Applying option r (set frame rate (Hz value, fraction or abbreviation)) with argument 30.
Successfully parsed a group of options.
Opening an input file: -.
[rawvideo @ 0x5e16299fa4c0] Opening 'fd:' for reading
[fd @ 0x5e16299fab40] Setting default whitelist 'crypto,data'
[rawvideo @ 0x5e16299fa4c0] Before avformat_find_stream_info() pos: 0 bytes read:65536 seeks:0 nb_streams:1
[rawvideo @ 0x5e16299fa4c0] All info found
[rawvideo @ 0x5e16299fa4c0] After avformat_find_stream_info() pos: 921600 bytes read:921600 seeks:0 frames:1
Input #0, rawvideo, from 'fd:':
  Duration: N/A, start: 0.000000, bitrate: 221184 kb/s
  Stream #0:0, 1, 1/30: Video: rawvideo, 1 reference frame (BGR[24] / 0x18524742), bgr24, 640x480, 0/1, 221184 kb/s, 30 tbr, 30 tbn
Successfully opened the file.
Parsing a group of options: output url ./../video/output_23-39-16-08-08-2024.mp4.
Applying option c:v (codec name) with argument libx264.
Applying option pix_fmt (set pixel format) with argument yuv420p.
Successfully parsed a group of options.
Opening an output file: ./../video/output_23-39-16-08-08-2024.mp4.
[out#0/mp4 @ 0x5e1629a0c340] No explicit maps, mapping streams automatically...
[vost#0:0/libx264 @ 0x5e1629a0d640] Created video stream from input stream 0:0
[file @ 0x5e1629a10080] Setting default whitelist 'file,crypto,data'
Successfully opened the file.
Stream mapping:
  Stream #0:0 -> #0:0 (rawvideo (native) -> h264 (libx264))
[rawvideo @ 0x5e1629a0c780] PACKET SIZE: 921600, STRIDE: 1920
detected 2 logical cores
[graph 0 input from stream 0:0 @ 0x5e1629a11080] Setting 'video_size' to value '640x480'
[graph 0 input from stream 0:0 @ 0x5e1629a11080] Setting 'pix_fmt' to value '3'
[graph 0 input from stream 0:0 @ 0x5e1629a11080] Setting 'time_base' to value '1/30'
[graph 0 input from stream 0:0 @ 0x5e1629a11080] Setting 'pixel_aspect' to value '0/1'
[graph 0 input from stream 0:0 @ 0x5e1629a11080] Setting 'frame_rate' to value '30/1'
[graph 0 input from stream 0:0 @ 0x5e1629a11080] w:640 h:480 pixfmt:bgr24 tb:1/30 fr:30/1 sar:0/1
[format @ 0x5e1629a11600] Setting 'pix_fmts' to value 'yuv420p'
[auto_scale_0 @ 0x5e1629a12a00] w:iw h:ih flags:'' interl:0
[format @ 0x5e1629a11600] auto-inserting filter 'auto_scale_0' between the filter 'Parsed_null_0' and the filter 'format'
[AVFilterGraph @ 0x5e1629a0c140] query_formats: 4 queried, 2 merged, 1 already done, 0 delayed
[auto_scale_0 @ 0x5e1629a12a00] w:640 h:480 fmt:bgr24 sar:0/1 -> w:640 h:480 fmt:yuv420p sar:0/1 flags:0x00000004
[libx264 @ 0x5e1629a0da00] using mv_range_thread = 72
[libx264 @ 0x5e1629a0da00] using cpu capabilities: MMX2 SSE2Fast LZCNT SSSE3 SSE4.2
[libx264 @ 0x5e1629a0da00] profile High, level 3.0, 4:2:0, 8-bit
[libx264 @ 0x5e1629a0da00] 264 - core 164 r3108 31e19f9 - H.264/MPEG-4 AVC codec - Copyleft 2003-2023 - http://www.videolan.org/x264.html - options: cabac=1 ref=3 deblock=1:0:0 analyse=0x3:0x113 me=hex subme=7 psy=1 psy_rd=1.00:0.00 mixed_ref=1 me_range=16 chroma_me=1 trellis=1 8x8dct=1 cqm=0 deadzone=21,11 fast_pskip=1 chroma_qp_offset=-2 threads=3 lookahead_threads=1 sliced_threads=0 nr=0 decimate=1 interlaced=0 bluray_compat=0 constrained_intra=0 bframes=3 b_pyramid=2 b_adapt=1 b_bias=0 direct=1 weightb=1 open_gop=0 weightp=2 keyint=250 keyint_min=25 scenecut=40 intra_refresh=0 rc_lookahead=40 rc=crf mbtree=1 crf=23.0 qcomp=0.60 qpmin=0 qpmax=69 qpstep=4 ip_ratio=1.40 aq=1:1.00
Output #0, mp4, to './../video/output_23-39-16-08-08-2024.mp4':
  Metadata:
    encoder         : Lavf60.16.100
  Stream #0:0, 0, 1/15360: Video: h264, 1 reference frame (avc1 / 0x31637661), yuv420p(tv, progressive), 640x480 (0x0), 0/1, q=2-31, 30 fps, 15360 tbn
    Metadata:
      encoder         : Lavc60.31.102 libx264
    Side data:
      cpb: bitrate max/min/avg: 0/0/0 buffer size: 0 vbv_delay: N/A
frame=    0 fps=0.0 q=0.0 size=       0kB time=N/A bitrate=N/A speed=N/A    [rawvideo @ 0x5e1629a0c780] PACKET SIZE: 921600, STRIDE: 1920
    Last message repeated 1 times
frame=    0 fps=0.0 q=0.0 size=       0kB time=N/A bitrate=N/A speed=N/A    [rawvideo @ 0x5e1629a0c780] PACKET SIZE: 921600, STRIDE: 1920
    Last message repeated 8 times
frame=    0 fps=0.0 q=0.0 size=       0kB time=N/A bitrate=N/A speed=N/A    [rawvideo @ 0x5e1629a0c780] PACKET SIZE: 921600, STRIDE: 1920
    Last message repeated 7 times
frame=    0 fps=0.0 q=0.0 size=       0kB time=N/A bitrate=N/A speed=N/A    [rawvideo @ 0x5e1629a0c780] PACKET SIZE: 921600, STRIDE: 1920
    Last message repeated 10 times
frame=    0 fps=0.0 q=0.0 size=       0kB time=N/A bitrate=N/A speed=N/A    [rawvideo @ 0x5e1629a0c780] PACKET SIZE: 921600, STRIDE: 1920
    Last message repeated 3 times
frame=    0 fps=0.0 q=0.0 size=       0kB time=N/A bitrate=N/A speed=N/A    [rawvideo @ 0x5e1629a0c780] PACKET SIZE: 921600, STRIDE: 1920
    Last message repeated 7 times
frame=    0 fps=0.0 q=0.0 size=       0kB time=N/A bitrate=N/A speed=N/A    [rawvideo @ 0x5e1629a0c780] PACKET SIZE: 921600, STRIDE: 1920
    Last message repeated 4 times
[libx264 @ 0x5e1629a0da00] frame=   0 QP=24.60 NAL=3 Slice:I Poc:0   I:1200 P:0    SKIP:0    size=8389 bytes
[rawvideo @ 0x5e1629a0c780] PACKET SIZE: 921600, STRIDE: 1920
[libx264 @ 0x5e1629a0da00] frame=   1 QP=21.53 NAL=2 Slice:P Poc:8   I:842  P:338  SKIP:20   size=15678 bytes
[rawvideo @ 0x5e1629a0c780] PACKET SIZE: 921600, STRIDE: 1920
[libx264 @ 0x5e1629a0da00] frame=   2 QP=23.63 NAL=2 Slice:B Poc:4   I:0    P:84   SKIP:1116 size=139 bytes
frame=    2 fps=0.4 q=29.0 size=       0kB time=00:00:00.00 bitrate=N/A speed=   0x    [rawvideo @ 0x5e1629a0c780] PACKET SIZE: 921600, STRIDE: 1920
[libx264 @ 0x5e1629a0da00] frame=   3 QP=23.65 NAL=0 Slice:B Poc:2   I:0    P:35   SKIP:1165 size=76 bytes
[rawvideo @ 0x5e1629a0c780] PACKET SIZE: 921600, STRIDE: 1920
[libx264 @ 0x5e1629a0da00] frame=   4 QP=23.97 NAL=0 Slice:B Poc:6   I:0    P:78   SKIP:1122 size=105 bytes
[rawvideo @ 0x5e1629a0c780] PACKET SIZE: 921600, STRIDE: 1920
[libx264 @ 0x5e1629a0da00] frame=   5 QP=21.32 NAL=2 Slice:P Poc:16  I:2    P:226  SKIP:972  size=591 bytes
[rawvideo @ 0x5e1629a0c780] PACKET SIZE: 921600, STRIDE: 1920
[libx264 @ 0x5e1629a0da00] frame=   6 QP=23.11 NAL=2 Slice:B Poc:12  I:0    P:179  SKIP:1021 size=173 bytes
[rawvideo @ 0x5e1629a0c780] PACKET SIZE: 921600, STRIDE: 1920
[libx264 @ 0x5e1629a0da00] frame=   7 QP=23.38 NAL=0 Slice:B Poc:10  I:0    P:155  SKIP:1045 size=153 bytes
[rawvideo @ 0x5e1629a0c780] PACKET SIZE: 921600, STRIDE: 1920
[libx264 @ 0x5e1629a0da00] frame=   8 QP=23.12 NAL=0 Slice:B Poc:14  I:0    P:32   SKIP:1168 size=63 bytes
frame=    8 fps=1.5 q=29.0 size=       0kB time=00:00:00.20 bitrate=   1.9kbits/s speed=0.0375x    [rawvideo @ 0x5e1629a0c780] PACKET SIZE: 921600, STRIDE: 1920
[libx264 @ 0x5e1629a0da00] frame=   9 QP=21.02 NAL=2 Slice:P Poc:24  I:2    P:160  SKIP:1038 size=488 bytes
[rawvideo @ 0x5e1629a0c780] PACKET SIZE: 921600, STRIDE: 1920
[libx264 @ 0x5e1629a0da00] frame=  10 QP=23.85 NAL=2 Slice:B Poc:20  I:0    P:137  SKIP:1063 size=155 bytes
[rawvideo @ 0x5e1629a0c780] PACKET SIZE: 921600, STRIDE: 1920
[libx264 @ 0x5e1629a0da00] frame=  11 QP=22.48 NAL=0 Slice:B Poc:18  I:0    P:118  SKIP:1082 size=122 bytes
[rawvideo @ 0x5e1629a0c780] PACKET SIZE: 921600, STRIDE: 1920
[libx264 @ 0x5e1629a0da00] frame=  12 QP=30.00 NAL=0 Slice:B Poc:22  I:0    P:56   SKIP:1144 size=75 bytes
[rawvideo @ 0x5e1629a0c780] PACKET SIZE: 921600, STRIDE: 1920
[libx264 @ 0x5e1629a0da00] frame=  13 QP=21.12 NAL=2 Slice:P Poc:32  I:4    P:164  SKIP:1032 size=450 bytes
[rawvideo @ 0x5e1629a0c780] PACKET SIZE: 921600, STRIDE: 1920
[libx264 @ 0x5e1629a0da00] frame=  14 QP=22.30 NAL=2 Slice:B Poc:28  I:0    P:125  SKIP:1075 size=131 bytes
[rawvideo @ 0x5e1629a0c780] PACKET SIZE: 921600, STRIDE: 1920
[libx264 @ 0x5e1629a0da00] frame=  15 QP=23.12 NAL=0 Slice:B Poc:26  I:0    P:100  SKIP:1100 size=102 bytes
[rawvideo @ 0x5e1629a0c780] PACKET SIZE: 921600, STRIDE: 1920
[libx264 @ 0x5e1629a0da00] frame=  16 QP=30.00 NAL=0 Slice:B Poc:30  I:0    P:21   SKIP:1179 size=45 bytes
[rawvideo @ 0x5e1629a0c780] PACKET SIZE: 921600, STRIDE: 1920
[libx264 @ 0x5e1629a0da00] frame=  17 QP=20.86 NAL=2 Slice:P Poc:40  I:1    P:154  SKIP:1045 size=398 bytes
frame=   17 fps=2.9 q=29.0 size=       0kB time=00:00:00.50 bitrate=   0.8kbits/s speed=0.0849x    [rawvideo @ 0x5e1629a0c780] PACKET SIZE: 921600, STRIDE: 1920
[libx264 @ 0x5e1629a0da00] frame=  18 QP=22.60 NAL=2 Slice:B Poc:36  I:0    P:105  SKIP:1095 size=126 bytes
[rawvideo @ 0x5e1629a0c780] PACKET SIZE: 921600, STRIDE: 1920
[libx264 @ 0x5e1629a0da00] frame=  19 QP=23.12 NAL=0 Slice:B Poc:34  I:0    P:79   SKIP:1121 size=89 bytes
[rawvideo @ 0x5e1629a0c780] PACKET SIZE: 921600, STRIDE: 1920
[libx264 @ 0x5e1629a0da00] frame=  20 QP=23.34 NAL=0 Slice:B Poc:38  I:0    P:29   SKIP:1171 size=57 bytes
[rawvideo @ 0x5e1629a0c780] PACKET SIZE: 921600, STRIDE: 1920
[libx264 @ 0x5e1629a0da00] frame=  21 QP=20.99 NAL=2 Slice:P Poc:48  I:1    P:114  SKIP:1085 size=315 bytes
[rawvideo @ 0x5e1629a0c780] PACKET SIZE: 921600, STRIDE: 1920
[libx264 @ 0x5e1629a0da00] frame=  22 QP=26.77 NAL=2 Slice:B Poc:44  I:0    P:93   SKIP:1107 size=105 bytes
[rawvideo @ 0x5e1629a0c780] PACKET SIZE: 921600, STRIDE: 1920
[libx264 @ 0x5e1629a0da00] frame=  23 QP=30.00 NAL=0 Slice:B Poc:42  I:0    P:108  SKIP:1092 size=110 bytes
[rawvideo @ 0x5e1629a0c780] PACKET SIZE: 921600, STRIDE: 1920
[libx264 @ 0x5e1629a0da00] frame=  24 QP=30.00 NAL=0 Slice:B Poc:46  I:0    P:31   SKIP:1169 size=54 bytes
[rawvideo @ 0x5e1629a0c780] PACKET SIZE: 921600, STRIDE: 1920
[libx264 @ 0x5e1629a0da00] frame=  25 QP=21.73 NAL=2 Slice:P Poc:56  I:0    P:84   SKIP:1116 size=211 bytes
frame=   25 fps=3.9 q=29.0 size=       0kB time=00:00:00.76 bitrate=   0.5kbits/s speed=0.119x    [rawvideo @ 0x5e1629a0c780] PACKET SIZE: 921600, STRIDE: 1920
[libx264 @ 0x5e1629a0da00] frame=  26 QP=21.06 NAL=2 Slice:B Poc:52  I:0    P:75   SKIP:1125 size=111 bytes
[rawvideo @ 0x5e1629a0c780] PACKET SIZE: 921600, STRIDE: 1920
[libx264 @ 0x5e1629a0da00] frame=  27 QP=23.25 NAL=0 Slice:B Poc:50  I:0    P:54   SKIP:1146 size=72 bytes
[rawvideo @ 0x5e1629a0c780] PACKET SIZE: 921600, STRIDE: 1920
[libx264 @ 0x5e1629a0da00] frame=  28 QP=22.80 NAL=0 Slice:B Poc:54  I:0    P:23   SKIP:1177 size=52 bytes
[rawvideo @ 0x5e1629a0c780] PACKET SIZE: 921600, STRIDE: 1920
[libx264 @ 0x5e1629a0da00] frame=  29 QP=21.69 NAL=2 Slice:P Poc:64  I:0    P:110  SKIP:1090 size=257 bytes
[rawvideo @ 0x5e1629a0c780] PACKET SIZE: 921600, STRIDE: 1920
[libx264 @ 0x5e1629a0da00] frame=  30 QP=22.95 NAL=2 Slice:B Poc:60  I:0    P:108  SKIP:1092 size=110 bytes
[rawvideo @ 0x5e1629a0c780] PACKET SIZE: 921600, STRIDE: 1920
[libx264 @ 0x5e1629a0da00] frame=  31 QP=28.39 NAL=0 Slice:B Poc:58  I:0    P:69   SKIP:1131 size=82 bytes
[rawvideo @ 0x5e1629a0c780] PACKET SIZE: 921600, STRIDE: 1920
[libx264 @ 0x5e1629a0da00] frame=  32 QP=30.00 NAL=0 Slice:B Poc:62  I:0    P:36   SKIP:1164 size=60 bytes
frame=   33 fps=4.7 q=29.0 size=       0kB time=00:00:01.00 bitrate=   0.4kbits/s speed=0.142x    [rawvideo @ 0x5e1629a0c780] PACKET SIZE: 921600, STRIDE: 1920
[libx264 @ 0x5e1629a0da00] frame=  33 QP=22.24 NAL=2 Slice:P Poc:72  I:2    P:254  SKIP:944  size=606 bytes
[rawvideo @ 0x5e1629a0c780] PACKET SIZE: 921600, STRIDE: 1920
[libx264 @ 0x5e1629a0da00] frame=  34 QP=22.97 NAL=2 Slice:B Poc:68  I:1    P:237  SKIP:962  size=199 bytes
[rawvideo @ 0x5e1629a0c780] PACKET SIZE: 921600, STRIDE: 1920
[libx264 @ 0x5e1629a0da00] frame=  35 QP=22.05 NAL=0 Slice:B Poc:66  I:0    P:183  SKIP:1017 size=146 bytes
[rawvideo @ 0x5e1629a0c780] PACKET SIZE: 921600, STRIDE: 1920
[libx264 @ 0x5e1629a0da00] frame=  36 QP=22.82 NAL=0 Slice:B Poc:70  I:0    P:62   SKIP:1138 size=88 bytes
[rawvideo @ 0x5e1629a0c780] PACKET SIZE: 921600, STRIDE: 1920
[libx264 @ 0x5e1629a0da00] frame=  37 QP=21.40 NAL=2 Slice:P Poc:80  I:1    P:130  SKIP:1069 size=286 bytes
[rawvideo @ 0x5e1629a0c780] PACKET SIZE: 921600, STRIDE: 1920
[libx264 @ 0x5e1629a0da00] frame=  38 QP=21.53 NAL=2 Slice:B Poc:76  I:0    P:125  SKIP:1075 size=145 bytes
[rawvideo @ 0x5e1629a0c780] PACKET SIZE: 921600, STRIDE: 1920
[libx264 @ 0x5e1629a0da00] frame=  39 QP=24.69 NAL=0 Slice:B Poc:74  I:0    P:132  SKIP:1068 size=117 bytes
[rawvideo @ 0x5e1629a0c780] PACKET SIZE: 921600, STRIDE: 1920
[libx264 @ 0x5e1629a0da00] frame=  40 QP=29.01 NAL=0 Slice:B Poc:78  I:0    P:40   SKIP:1160 size=67 bytes
[rawvideo @ 0x5e1629a0c780] PACKET SIZE: 921600, STRIDE: 1920
[libx264 @ 0x5e1629a0da00] frame=  41 QP=23.99 NAL=2 Slice:P Poc:88  I:71   P:358  SKIP:771  size=1174 bytes
frame=   41 fps=5.4 q=29.0 size=       0kB time=00:00:01.30 bitrate=   0.3kbits/s speed=0.17x    [rawvideo @ 0x5e1629a0c780] PACKET SIZE: 921600, STRIDE: 1920
[libx264 @ 0x5e1629a0da00] frame=  42 QP=24.59 NAL=2 Slice:B Poc:84  I:15   P:331  SKIP:854  size=549 bytes
[rawvideo @ 0x5e1629a0c780] PACKET SIZE: 921600, STRIDE: 1920
[libx264 @ 0x5e1629a0da00] frame=  43 QP=24.52 NAL=0 Slice:B Poc:82  I:0    P:266  SKIP:934  size=197 bytes
[rawvideo @ 0x5e1629a0c780] PACKET SIZE: 921600, STRIDE: 1920
[libx264 @ 0x5e1629a0da00] frame=  44 QP=30.00 NAL=0 Slice:B Poc:86  I:0    P:175  SKIP:1025 size=146 bytes
[rawvideo @ 0x5e1629a0c780] PACKET SIZE: 921600, STRIDE: 1920
[libx264 @ 0x5e1629a0da00] frame=  45 QP=25.04 NAL=2 Slice:P Poc:94  I:323  P:332  SKIP:545  size=1986 bytes
[rawvideo @ 0x5e1629a0c780] PACKET SIZE: 921600, STRIDE: 1920
[libx264 @ 0x5e1629a0da00] frame=  46 QP=26.41 NAL=2 Slice:B Poc:90  I:98   P:168  SKIP:934  size=874 bytes
[rawvideo @ 0x5e1629a0c780] PACKET SIZE: 921600, STRIDE: 1920
[libx264 @ 0x5e1629a0da00] frame=  47 QP=26.40 NAL=0 Slice:B Poc:92  I:108  P:116  SKIP:976  size=971 bytes
[rawvideo @ 0x5e1629a0c780] PACKET SIZE: 921600, STRIDE: 1920
[libx264 @ 0x5e1629a0da00] frame=  48 QP=25.09 NAL=2 Slice:P Poc:98  I:669  P:447  SKIP:84   size=5323 bytes
frame=   48 fps=5.8 q=29.0 size=       0kB time=00:00:01.53 bitrate=   0.3kbits/s speed=0.187x    [rawvideo @ 0x5e1629a0c780] PACKET SIZE: 921600, STRIDE: 1920
[libx264 @ 0x5e1629a0da00] frame=  49 QP=27.18 NAL=0 Slice:B Poc:96  I:275  P:323  SKIP:602  size=2729 bytes
[rawvideo @ 0x5e1629a0c780] PACKET SIZE: 921600, STRIDE: 1920
[libx264 @ 0x5e1629a0da00] frame=  50 QP=25.21 NAL=2 Slice:P Poc:102 I:639  P:416  SKIP:145  size=4562 bytes
[rawvideo @ 0x5e1629a0c780] PACKET SIZE: 921600, STRIDE: 1920
[libx264 @ 0x5e1629a0da00] frame=  51 QP=26.17 NAL=0 Slice:B Poc:100 I:273  P:539  SKIP:388  size=3682 bytes
[rawvideo @ 0x5e1629a0c780] PACKET SIZE: 921600, STRIDE: 1920
[libx264 @ 0x5e1629a0da00] frame=  52 QP=25.07 NAL=2 Slice:P Poc:110 I:636  P:546  SKIP:18   size=7272 bytes
[rawvideo @ 0x5e1629a0c780] PACKET SIZE: 921600, STRIDE: 1920
[libx264 @ 0x5e1629a0da00] frame=  53 QP=26.05 NAL=2 Slice:B Poc:106 I:633  P:335  SKIP:232  size=4999 bytes
[rawvideo @ 0x5e1629a0c780] PACKET SIZE: 921600, STRIDE: 1920
[libx264 @ 0x5e1629a0da00] frame=  54 QP=25.91 NAL=0 Slice:B Poc:104 I:358  P:514  SKIP:328  size=3910 bytes
frame=   54 fps=6.2 q=29.0 size=       0kB time=00:00:01.73 bitrate=   0.2kbits/s speed=0.198x    [rawvideo @ 0x5e1629a0c780] PACKET SIZE: 921600, STRIDE: 1920
[libx264 @ 0x5e1629a0da00] frame=  55 QP=27.33 NAL=0 Slice:B Poc:108 I:64   P:507  SKIP:629  size=2465 bytes
[rawvideo @ 0x5e1629a0c780] PACKET SIZE: 921600, STRIDE: 1920
[libx264 @ 0x5e1629a0da00] frame=  56 QP=25.39 NAL=2 Slice:P Poc:116 I:509  P:623  SKIP:68   size=6072 bytes
[rawvideo @ 0x5e1629a0c780] PACKET SIZE: 921600, STRIDE: 1920
[libx264 @ 0x5e1629a0da00] frame=  57 QP=26.19 NAL=2 Slice:B Poc:112 I:8    P:484  SKIP:708  size=1402 bytes
[rawvideo @ 0x5e1629a0c780] PACKET SIZE: 921600, STRIDE: 1920
[libx264 @ 0x5e1629a0da00] frame=  58 QP=27.36 NAL=0 Slice:B Poc:114 I:13   P:446  SKIP:741  size=1541 bytes
frame=   58 fps=6.2 q=29.0 size=       0kB time=00:00:01.86 bitrate=   0.2kbits/s speed= 0.2x    [rawvideo @ 0x5e1629a0c780] PACKET SIZE: 921600, STRIDE: 1920
[libx264 @ 0x5e1629a0da00] frame=  59 QP=24.38 NAL=2 Slice:P Poc:120 I:578  P:362  SKIP:260  size=4939 bytes
[rawvideo @ 0x5e1629a0c780] PACKET SIZE: 921600, STRIDE: 1920
[libx264 @ 0x5e1629a0da00] frame=  60 QP=28.15 NAL=0 Slice:B Poc:118 I:254  P:434  SKIP:512  size=3692 bytes
[rawvideo @ 0x5e1629a0c780] PACKET SIZE: 921600, STRIDE: 1920
[libx264 @ 0x5e1629a0da00] frame=  61 QP=24.60 NAL=2 Slice:P Poc:124 I:379  P:296  SKIP:525  size=3401 bytes
frame=   61 fps=6.2 q=29.0 size=       0kB time=00:00:01.96 bitrate=   0.2kbits/s speed= 0.2x    [rawvideo @ 0x5e1629a0c780] PACKET SIZE: 921600, STRIDE: 1920
[libx264 @ 0x5e1629a0da00] frame=  62 QP=28.04 NAL=0 Slice:B Poc:122 I:137  P:299  SKIP:764  size=2018 bytes
[rawvideo @ 0x5e1629a0c780] PACKET SIZE: 921600, STRIDE: 1920
[libx264 @ 0x5e1629a0da00] frame=  63 QP=24.16 NAL=2 Slice:P Poc:132 I:602  P:546  SKIP:52   size=5973 bytes
[rawvideo @ 0x5e1629a0c780] PACKET SIZE: 921600, STRIDE: 1920
[libx264 @ 0x5e1629a0da00] frame=  64 QP=26.61 NAL=2 Slice:B Poc:128 I:88   P:418  SKIP:694  size=2181 bytes
[rawvideo @ 0x5e1629a0c780] PACKET SIZE: 921600, STRIDE: 1920
[libx264 @ 0x5e1629a0da00] frame=  65 QP=26.95 NAL=0 Slice:B Poc:126 I:95   P:531  SKIP:574  size=2253 bytes
[rawvideo @ 0x5e1629a0c780] PACKET SIZE: 921600, STRIDE: 1920
[libx264 @ 0x5e1629a0da00] frame=  66 QP=26.94 NAL=0 Slice:B Poc:130 I:7    P:355  SKIP:838  size=1146 bytes
[rawvideo @ 0x5e1629a0c780] PACKET SIZE: 921600, STRIDE: 1920
[libx264 @ 0x5e1629a0da00] frame=  67 QP=23.87 NAL=2 Slice:P Poc:140 I:668  P:416  SKIP:116  size=6868 bytes
[rawvideo @ 0x5e1629a0c780] PACKET SIZE: 921600, STRIDE: 1920
[libx264 @ 0x5e1629a0da00] frame=  68 QP=27.50 NAL=2 Slice:B Poc:136 I:178  P:439  SKIP:583  size=2641 bytes
frame=   69 fps=6.7 q=29.0 size=       0kB time=00:00:02.20 bitrate=   0.2kbits/s speed=0.213x    [rawvideo @ 0x5e1629a0c780] PACKET SIZE: 921600, STRIDE: 1920
[libx264 @ 0x5e1629a0da00] frame=  69 QP=27.27 NAL=0 Slice:B Poc:134 I:38   P:296  SKIP:866  size=1149 bytes
[rawvideo @ 0x5e1629a0c780] PACKET SIZE: 921600, STRIDE: 1920
[libx264 @ 0x5e1629a0da00] frame=  70 QP=26.87 NAL=0 Slice:B Poc:138 I:53   P:307  SKIP:840  size=1339 bytes
[rawvideo @ 0x5e1629a0c780] PACKET SIZE: 921600, STRIDE: 1920
[libx264 @ 0x5e1629a0da00] frame=  71 QP=23.87 NAL=2 Slice:P Poc:148 I:290  P:628  SKIP:282  size=4208 bytes
[rawvideo @ 0x5e1629a0c780] PACKET SIZE: 921600, STRIDE: 1920
[libx264 @ 0x5e1629a0da00] frame=  72 QP=25.79 NAL=2 Slice:B Poc:144 I:32   P:453  SKIP:715  size=1614 bytes
[rawvideo @ 0x5e1629a0c780] PACKET SIZE: 921600, STRIDE: 1920
[libx264 @ 0x5e1629a0da00] frame=  73 QP=28.90 NAL=0 Slice:B Poc:142 I:10   P:380  SKIP:810  size=1040 bytes
[rawvideo @ 0x5e1629a0c780] PACKET SIZE: 921600, STRIDE: 1920
[libx264 @ 0x5e1629a0da00] frame=  74 QP=27.57 NAL=0 Slice:B Poc:146 I:2    P:341  SKIP:857  size=951 bytes
frame=   74 fps=6.8 q=29.0 size=       0kB time=00:00:02.40 bitrate=   0.2kbits/s speed=0.221x    [rawvideo @ 0x5e1629a0c780] PACKET SIZE: 921600, STRIDE: 1920
[libx264 @ 0x5e1629a0da00] frame=  75 QP=23.77 NAL=2 Slice:P Poc:156 I:221  P:532  SKIP:447  size=3286 bytes
[rawvideo @ 0x5e1629a0c780] PACKET SIZE: 921600, STRIDE: 1920
[libx264 @ 0x5e1629a0da00] frame=  76 QP=24.90 NAL=2 Slice:B Poc:152 I:12   P:419  SKIP:769  size=1404 bytes
[rawvideo @ 0x5e1629a0c780] PACKET SIZE: 921600, STRIDE: 1920
[libx264 @ 0x5e1629a0da00] frame=  77 QP=26.91 NAL=0 Slice:B Poc:150 I:0    P:364  SKIP:836  size=679 bytes
[rawvideo @ 0x5e1629a0c780] PACKET SIZE: 921600, STRIDE: 1920
[libx264 @ 0x5e1629a0da00] frame=  78 QP=26.02 NAL=0 Slice:B Poc:154 I:51   P:400  SKIP:749  size=1384 bytes
[rawvideo @ 0x5e1629a0c780] PACKET SIZE: 921600, STRIDE: 1920
[libx264 @ 0x5e1629a0da00] frame=  79 QP=23.60 NAL=2 Slice:P Poc:164 I:273  P:742  SKIP:185  size=4704 bytes
frame=   79 fps=6.9 q=29.0 size=       0kB time=00:00:02.56 bitrate=   0.1kbits/s speed=0.225x    [rawvideo @ 0x5e1629a0c780] PACKET SIZE: 921600, STRIDE: 1920
[libx264 @ 0x5e1629a0da00] frame=  80 QP=25.10 NAL=2 Slice:B Poc:160 I:61   P:387  SKIP:752  size=1589 bytes
[rawvideo @ 0x5e1629a0c780] PACKET SIZE: 921600, STRIDE: 1920
[libx264 @ 0x5e1629a0da00] frame=  81 QP=25.75 NAL=0 Slice:B Poc:158 I:6    P:485  SKIP:709  size=1095 bytes
[rawvideo @ 0x5e1629a0c780] PACKET SIZE: 921600, STRIDE: 1920
[libx264 @ 0x5e1629a0da00] frame=  82 QP=25.54 NAL=0 Slice:B Poc:162 I:23   P:341  SKIP:836  size=1152 bytes
[rawvideo @ 0x5e1629a0c780] PACKET SIZE: 921600, STRIDE: 1920
[libx264 @ 0x5e1629a0da00] frame=  83 QP=24.39 NAL=2 Slice:P Poc:172 I:138  P:295  SKIP:767  size=2224 bytes
[rawvideo @ 0x5e1629a0c780] PACKET SIZE: 921600, STRIDE: 1920
[libx264 @ 0x5e1629a0da00] frame=  84 QP=24.76 NAL=2 Slice:B Poc:168 I:15   P:334  SKIP:851  size=1068 bytes
[rawvideo @ 0x5e1629a0c780] PACKET SIZE: 921600, STRIDE: 1920
[libx264 @ 0x5e1629a0da00] frame=  85 QP=25.92 NAL=0 Slice:B Poc:166 I:0    P:301  SKIP:899  size=573 bytes
frame=   86 fps=7.2 q=29.0 size=       0kB time=00:00:02.76 bitrate=   0.1kbits/s speed=0.231x    [rawvideo @ 0x5e1629a0c780] PACKET SIZE: 921600, STRIDE: 1920
[libx264 @ 0x5e1629a0da00] frame=  86 QP=25.53 NAL=0 Slice:B Poc:170 I:10   P:428  SKIP:762  size=953 bytes
[rawvideo @ 0x5e1629a0c780] PACKET SIZE: 921600, STRIDE: 1920
[libx264 @ 0x5e1629a0da00] frame=  87 QP=24.37 NAL=2 Slice:P Poc:180 I:135  P:685  SKIP:380  size=2863 bytes
[rawvideo @ 0x5e1629a0c780] PACKET SIZE: 921600, STRIDE: 1920
[libx264 @ 0x5e1629a0da00] frame=  88 QP=25.45 NAL=2 Slice:B Poc:176 I:68   P:276  SKIP:856  size=1509 bytes
[rawvideo @ 0x5e1629a0c780] PACKET SIZE: 921600, STRIDE: 1920
[libx264 @ 0x5e1629a0da00] frame=  89 QP=26.02 NAL=0 Slice:B Poc:174 I:52   P:329  SKIP:819  size=1019 bytes
frame=   89 fps=7.1 q=29.0 size=       0kB time=00:00:02.90 bitrate=   0.1kbits/s speed=0.232x    [rawvideo @ 0x5e1629a0c780] PACKET SIZE: 921600, STRIDE: 1920
[libx264 @ 0x5e1629a0da00] frame=  90 QP=24.96 NAL=0 Slice:B Poc:178 I:12   P:304  SKIP:884  size=740 bytes
[rawvideo @ 0x5e1629a0c780] PACKET SIZE: 921600, STRIDE: 1920
[libx264 @ 0x5e1629a0da00] frame=  91 QP=26.22 NAL=2 Slice:P Poc:188 I:530  P:563  SKIP:107  size=5907 bytes
[rawvideo @ 0x5e1629a0c780] PACKET SIZE: 921600, STRIDE: 1920
[libx264 @ 0x5e1629a0da00] frame=  92 QP=25.58 NAL=2 Slice:B Poc:184 I:182  P:357  SKIP:661  size=2230 bytes
[rawvideo @ 0x5e1629a0c780] PACKET SIZE: 921600, STRIDE: 1920
[libx264 @ 0x5e1629a0da00] frame=  93 QP=25.44 NAL=0 Slice:B Poc:182 I:68   P:340  SKIP:792  size=1269 bytes
[rawvideo @ 0x5e1629a0c780] PACKET SIZE: 921600, STRIDE: 1920
[libx264 @ 0x5e1629a0da00] frame=  94 QP=27.30 NAL=0 Slice:B Poc:186 I:163  P:554  SKIP:483  size=3303 bytes
[rawvideo @ 0x5e1629a0c780] PACKET SIZE: 921600, STRIDE: 1920
[libx264 @ 0x5e1629a0da00] scene cut at 101 Icost:313710 Pcost:272469 ratio:0.1315 bias:0.2013 gop:101 (imb:870 pmb:194)
[libx264 @ 0x5e1629a0da00] frame=  95 QP=26.26 NAL=2 Slice:P Poc:196 I:929  P:245  SKIP:26   size=6292 bytes
frame=   95 fps=7.3 q=29.0 size=       0kB time=00:00:03.10 bitrate=   0.1kbits/s speed=0.238x    [rawvideo @ 0x5e1629a0c780] PACKET SIZE: 921600, STRIDE: 1920
[libx264 @ 0x5e1629a0da00] frame=  96 QP=26.17 NAL=2 Slice:B Poc:192 I:388  P:519  SKIP:293  size=5564 bytes
[rawvideo @ 0x5e1629a0c780] PACKET SIZE: 921600, STRIDE: 1920
[libx264 @ 0x5e1629a0da00] frame=  97 QP=26.70 NAL=0 Slice:B Poc:190 I:153  P:565  SKIP:482  size=3398 bytes
[rawvideo @ 0x5e1629a0c780] PACKET SIZE: 921600, STRIDE: 1920
[libx264 @ 0x5e1629a0da00] frame=  98 QP=27.14 NAL=0 Slice:B Poc:194 I:162  P:665  SKIP:373  size=3962 bytes
[rawvideo @ 0x5e1629a0c780] PACKET SIZE: 921600, STRIDE: 1920
[libx264 @ 0x5e1629a0da00] frame=  99 QP=26.33 NAL=2 Slice:P Poc:200 I:931  P:265  SKIP:4    size=6233 bytes
[rawvideo @ 0x5e1629a0c780] PACKET SIZE: 921600, STRIDE: 1920
[libx264 @ 0x5e1629a0da00] frame= 100 QP=26.60 NAL=0 Slice:B Poc:198 I:198  P:858  SKIP:144  size=5128 bytes
frame=  100 fps=7.3 q=29.0 size=       0kB time=00:00:03.26 bitrate=   0.1kbits/s speed=0.239x    [rawvideo @ 0x5e1629a0c780] PACKET SIZE: 921600, STRIDE: 1920
[libx264 @ 0x5e1629a0da00] frame= 101 QP=22.84 NAL=3 Slice:I Poc:0   I:1200 P:0    SKIP:0    size=12021 bytes
[rawvideo @ 0x5e1629a0c780] PACKET SIZE: 921600, STRIDE: 1920
[libx264 @ 0x5e1629a0da00] frame= 102 QP=26.19 NAL=2 Slice:P Poc:4   I:622  P:541  SKIP:37   size=6393 bytes
[rawvideo @ 0x5e1629a0c780] PACKET SIZE: 921600, STRIDE: 1920
[libx264 @ 0x5e1629a0da00] frame= 103 QP=26.21 NAL=0 Slice:B Poc:2   I:25   P:795  SKIP:380  size=3266 bytes
[rawvideo @ 0x5e1629a0c780] PACKET SIZE: 921600, STRIDE: 1920
[libx264 @ 0x5e1629a0da00] frame= 104 QP=26.19 NAL=2 Slice:P Poc:6   I:583  P:577  SKIP:40   size=7105 bytes
[rawvideo @ 0x5e1629a0c780] PACKET SIZE: 921600, STRIDE: 1920
[libx264 @ 0x5e1629a0da00] frame= 105 QP=25.75 NAL=2 Slice:P Poc:10  I:950  P:249  SKIP:1    size=9137 bytes
[rawvideo @ 0x5e1629a0c780] PACKET SIZE: 921600, STRIDE: 1920
[libx264 @ 0x5e1629a0da00] frame= 106 QP=27.34 NAL=0 Slice:B Poc:8   I:390  P:673  SKIP:137  size=6141 bytes
frame=  106 fps=7.5 q=29.0 size=       0kB time=00:00:03.46 bitrate=   0.1kbits/s speed=0.244x    [rawvideo @ 0x5e1629a0c780] PACKET SIZE: 921600, STRIDE: 1920
[libx264 @ 0x5e1629a0da00] frame= 107 QP=23.94 NAL=2 Slice:P Poc:12  I:670  P:502  SKIP:28   size=10610 bytes
[rawvideo @ 0x5e1629a0c780] PACKET SIZE: 921600, STRIDE: 1920
[libx264 @ 0x5e1629a0da00] frame= 108 QP=23.50 NAL=2 Slice:P Poc:20  I:164  P:1005 SKIP:31   size=5626 bytes
[rawvideo @ 0x5e1629a0c780] PACKET SIZE: 921600, STRIDE: 1920
[libx264 @ 0x5e1629a0da00] frame= 109 QP=25.07 NAL=2 Slice:B Poc:16  I:4    P:154  SKIP:1042 size=428 bytes
[rawvideo @ 0x5e1629a0c780] PACKET SIZE: 921600, STRIDE: 1920
[libx264 @ 0x5e1629a0da00] frame= 110 QP=25.19 NAL=0 Slice:B Poc:14  I:3    P:466  SKIP:731  size=828 bytes
[rawvideo @ 0x5e1629a0c780] PACKET SIZE: 921600, STRIDE: 1920
[libx264 @ 0x5e1629a0da00] frame= 111 QP=25.52 NAL=0 Slice:B Poc:18  I:0    P:346  SKIP:854  size=600 bytes
[rawvideo @ 0x5e1629a0c780] PACKET SIZE: 921600, STRIDE: 1920
[libx264 @ 0x5e1629a0da00] frame= 112 QP=21.80 NAL=2 Slice:P Poc:28  I:43   P:875  SKIP:282  size=4708 bytes
[rawvideo @ 0x5e1629a0c780] PACKET SIZE: 921600, STRIDE: 1920
[libx264 @ 0x5e1629a0da00] frame= 113 QP=25.27 NAL=2 Slice:B Poc:24  I:1    P:256  SKIP:943  size=693 bytes
[rawvideo @ 0x5e1629a0c780] PACKET SIZE: 921600, STRIDE: 1920
[libx264 @ 0x5e1629a0da00] frame= 114 QP=25.98 NAL=0 Slice:B Poc:22  I:2    P:412  SKIP:786  size=616 bytes
frame=  114 fps=7.7 q=29.0 size=     256kB time=00:00:03.73 bitrate= 561.8kbits/s speed=0.253x    [rawvideo @ 0x5e1629a0c780] PACKET SIZE: 921600, STRIDE: 1920
[libx264 @ 0x5e1629a0da00] frame= 115 QP=26.30 NAL=0 Slice:B Poc:26  I:1    P:71   SKIP:1128 size=100 bytes
[rawvideo @ 0x5e1629a0c780] PACKET SIZE: 921600, STRIDE: 1920
[libx264 @ 0x5e1629a0da00] frame= 116 QP=21.29 NAL=2 Slice:P Poc:36  I:11   P:399  SKIP:790  size=1460 bytes
[rawvideo @ 0x5e1629a0c780] PACKET SIZE: 921600, STRIDE: 1920
[libx264 @ 0x5e1629a0da00] frame= 117 QP=22.02 NAL=2 Slice:B Poc:32  I:2    P:283  SKIP:915  size=231 bytes
[rawvideo @ 0x5e1629a0c780] PACKET SIZE: 921600, STRIDE: 1920
[libx264 @ 0x5e1629a0da00] frame= 118 QP=23.35 NAL=0 Slice:B Poc:30  I:0    P:231  SKIP:969  size=176 bytes
[rawvideo @ 0x5e1629a0c780] PACKET SIZE: 921600, STRIDE: 1920
[libx264 @ 0x5e1629a0da00] frame= 119 QP=21.25 NAL=0 Slice:B Poc:34  I:0    P:75   SKIP:1125 size=104 bytes
[rawvideo @ 0x5e1629a0c780] PACKET SIZE: 921600, STRIDE: 1920
[libx264 @ 0x5e1629a0da00] frame= 120 QP=21.10 NAL=2 Slice:P Poc:44  I:0    P:340  SKIP:860  size=1087 bytes
[rawvideo @ 0x5e1629a0c780] PACKET SIZE: 921600, STRIDE: 1920
[libx264 @ 0x5e1629a0da00] frame= 121 QP=21.98 NAL=2 Slice:B Poc:40  I:0    P:225  SKIP:975  size=197 bytes
[rawvideo @ 0x5e1629a0c780] PACKET SIZE: 921600, STRIDE: 1920
[libx264 @ 0x5e1629a0da00] frame= 122 QP=30.00 NAL=0 Slice:B Poc:38  I:0    P:158  SKIP:1042 size=135 bytes
frame=  122 fps=8.0 q=29.0 size=     256kB time=00:00:04.00 bitrate= 524.4kbits/s speed=0.262x    [rawvideo @ 0x5e1629a0c780] PACKET SIZE: 921600, STRIDE: 1920
[libx264 @ 0x5e1629a0da00] frame= 123 QP=25.51 NAL=0 Slice:B Poc:42  I:0    P:56   SKIP:1144 size=90 bytes
[rawvideo @ 0x5e1629a0c780] PACKET SIZE: 921600, STRIDE: 1920
[libx264 @ 0x5e1629a0da00] frame= 124 QP=21.43 NAL=2 Slice:P Poc:52  I:3    P:406  SKIP:791  size=1226 bytes
[rawvideo @ 0x5e1629a0c780] PACKET SIZE: 921600, STRIDE: 1920
[libx264 @ 0x5e1629a0da00] frame= 125 QP=22.77 NAL=2 Slice:B Poc:48  I:0    P:267  SKIP:933  size=221 bytes
[rawvideo @ 0x5e1629a0c780] PACKET SIZE: 921600, STRIDE: 1920
[libx264 @ 0x5e1629a0da00] frame= 126 QP=23.34 NAL=0 Slice:B Poc:46  I:0    P:182  SKIP:1018 size=169 bytes
frame=  127 fps=8.0 q=29.0 size=     256kB time=00:00:04.13 bitrate= 507.5kbits/s speed=0.261x    [rawvideo @ 0x5e1629a0c780] PACKET SIZE: 921600, STRIDE: 1920
[libx264 @ 0x5e1629a0da00] frame= 127 QP=21.29 NAL=0 Slice:B Poc:50  I:0    P:137  SKIP:1063 size=143 bytes
[rawvideo @ 0x5e1629a0c780] PACKET SIZE: 921600, STRIDE: 1920
[libx264 @ 0x5e1629a0da00] frame= 128 QP=21.26 NAL=2 Slice:P Poc:60  I:1    P:281  SKIP:918  size=855 bytes
[rawvideo @ 0x5e1629a0c780] PACKET SIZE: 921600, STRIDE: 1920
[libx264 @ 0x5e1629a0da00] frame= 129 QP=27.33 NAL=2 Slice:B Poc:56  I:0    P:177  SKIP:1023 size=159 bytes
[rawvideo @ 0x5e1629a0c780] PACKET SIZE: 921600, STRIDE: 1920
[libx264 @ 0x5e1629a0da00] frame= 130 QP=24.85 NAL=0 Slice:B Poc:54  I:0    P:107  SKIP:1093 size=115 bytes
[rawvideo @ 0x5e1629a0c780] PACKET SIZE: 921600, STRIDE: 1920
[libx264 @ 0x5e1629a0da00] frame= 131 QP=22.86 NAL=0 Slice:B Poc:58  I:0    P:82   SKIP:1118 size=104 bytes
[rawvideo @ 0x5e1629a0c780] PACKET SIZE: 921600, STRIDE: 1920
[libx264 @ 0x5e1629a0da00] frame= 132 QP=21.36 NAL=2 Slice:P Poc:68  I:1    P:236  SKIP:963  size=713 bytes
[rawvideo @ 0x5e1629a0c780] PACKET SIZE: 921600, STRIDE: 1920
[libx264 @ 0x5e1629a0da00] frame= 133 QP=23.28 NAL=2 Slice:B Poc:64  I:0    P:142  SKIP:1058 size=153 bytes
[rawvideo @ 0x5e1629a0c780] PACKET SIZE: 921600, STRIDE: 1920
[libx264 @ 0x5e1629a0da00] frame= 134 QP=23.89 NAL=0 Slice:B Poc:62  I:0    P:85   SKIP:1115 size=106 bytes
[rawvideo @ 0x5e1629a0c780] PACKET SIZE: 921600, STRIDE: 1920
[libx264 @ 0x5e1629a0da00] frame= 135 QP=29.19 NAL=0 Slice:B Poc:66  I:0    P:43   SKIP:1157 size=71 bytes
frame=  135 fps=8.2 q=29.0 size=     256kB time=00:00:04.43 bitrate= 473.1kbits/s speed=0.269x    [rawvideo @ 0x5e1629a0c780] PACKET SIZE: 921600, STRIDE: 1920
[libx264 @ 0x5e1629a0da00] frame= 136 QP=21.17 NAL=2 Slice:P Poc:76  I:1    P:175  SKIP:1024 size=509 bytes
[rawvideo @ 0x5e1629a0c780] PACKET SIZE: 921600, STRIDE: 1920
[libx264 @ 0x5e1629a0da00] frame= 137 QP=22.03 NAL=2 Slice:B Poc:72  I:0    P:110  SKIP:1090 size=137 bytes
[rawvideo @ 0x5e1629a0c780] PACKET SIZE: 921600, STRIDE: 1920
[libx264 @ 0x5e1629a0da00] frame= 138 QP=30.00 NAL=0 Slice:B Poc:70  I:0    P:60   SKIP:1140 size=81 bytes
[rawvideo @ 0x5e1629a0c780] PACKET SIZE: 921600, STRIDE: 1920
[libx264 @ 0x5e1629a0da00] frame= 139 QP=28.13 NAL=0 Slice:B Poc:74  I:0    P:32   SKIP:1168 size=61 bytes
[rawvideo @ 0x5e1629a0c780] PACKET SIZE: 921600, STRIDE: 1920
[libx264 @ 0x5e1629a0da00] frame= 140 QP=21.01 NAL=2 Slice:P Poc:84  I:2    P:211  SKIP:987  size=603 bytes
[rawvideo @ 0x5e1629a0c780] PACKET SIZE: 921600, STRIDE: 1920
[libx264 @ 0x5e1629a0da00] frame= 141 QP=21.26 NAL=2 Slice:B Poc:80  I:0    P:141  SKIP:1059 size=149 bytes
[rawvideo @ 0x5e1629a0c780] PACKET SIZE: 921600, STRIDE: 1920
[libx264 @ 0x5e1629a0da00] frame= 142 QP=30.00 NAL=0 Slice:B Poc:78  I:0    P:105  SKIP:1095 size=101 bytes
[rawvideo @ 0x5e1629a0c780] PACKET SIZE: 921600, STRIDE: 1920
[libx264 @ 0x5e1629a0da00] frame= 143 QP=22.76 NAL=0 Slice:B Poc:82  I:0    P:32   SKIP:1168 size=62 bytes
[rawvideo @ 0x5e1629a0c780] PACKET SIZE: 921600, STRIDE: 1920
[libx264 @ 0x5e1629a0da00] frame= 144 QP=20.48 NAL=2 Slice:P Poc:92  I:2    P:154  SKIP:1044 size=451 bytes
frame=  144 fps=8.5 q=29.0 size=     256kB time=00:00:04.73 bitrate= 443.1kbits/s speed=0.278x    [rawvideo @ 0x5e1629a0c780] PACKET SIZE: 921600, STRIDE: 1920
[libx264 @ 0x5e1629a0da00] frame= 145 QP=27.55 NAL=2 Slice:B Poc:88  I:0    P:84   SKIP:1116 size=108 bytes
[rawvideo @ 0x5e1629a0c780] PACKET SIZE: 921600, STRIDE: 1920
[libx264 @ 0x5e1629a0da00] frame= 146 QP=22.46 NAL=0 Slice:B Poc:86  I:0    P:51   SKIP:1149 size=79 bytes
[rawvideo @ 0x5e1629a0c780] PACKET SIZE: 921600, STRIDE: 1920
[libx264 @ 0x5e1629a0da00] frame= 147 QP=30.00 NAL=0 Slice:B Poc:90  I:0    P:29   SKIP:1171 size=55 bytes
[rawvideo @ 0x5e1629a0c780] PACKET SIZE: 921600, STRIDE: 1920
[libx264 @ 0x5e1629a0da00] frame= 148 QP=20.65 NAL=2 Slice:P Poc:100 I:0    P:156  SKIP:1044 size=478 bytes
[rawvideo @ 0x5e1629a0c780] PACKET SIZE: 921600, STRIDE: 1920
[libx264 @ 0x5e1629a0da00] frame= 149 QP=22.23 NAL=2 Slice:B Poc:96  I:0    P:81   SKIP:1119 size=119 bytes
[rawvideo @ 0x5e1629a0c780] PACKET SIZE: 921600, STRIDE: 1920
[libx264 @ 0x5e1629a0da00] frame= 150 QP=22.31 NAL=0 Slice:B Poc:94  I:0    P:32   SKIP:1168 size=60 bytes
[rawvideo @ 0x5e1629a0c780] PACKET SIZE: 921600, STRIDE: 1920
[libx264 @ 0x5e1629a0da00] frame= 151 QP=30.00 NAL=0 Slice:B Poc:98  I:0    P:29   SKIP:1171 size=56 bytes
frame=  151 fps=8.6 q=29.0 size=     256kB time=00:00:04.96 bitrate= 422.3kbits/s speed=0.283x    [rawvideo @ 0x5e1629a0c780] PACKET SIZE: 921600, STRIDE: 1920
[libx264 @ 0x5e1629a0da00] frame= 152 QP=21.02 NAL=2 Slice:P Poc:108 I:0    P:154  SKIP:1046 size=414 bytes
[rawvideo @ 0x5e1629a0c780] PACKET SIZE: 921600, STRIDE: 1920
[libx264 @ 0x5e1629a0da00] frame= 153 QP=22.97 NAL=2 Slice:B Poc:104 I:0    P:116  SKIP:1084 size=135 bytes
[rawvideo @ 0x5e1629a0c780] PACKET SIZE: 921600, STRIDE: 1920
[libx264 @ 0x5e1629a0da00] frame= 154 QP=24.88 NAL=0 Slice:B Poc:102 I:0    P:64   SKIP:1136 size=88 bytes
[rawvideo @ 0x5e1629a0c780] PACKET SIZE: 921600, STRIDE: 1920
[libx264 @ 0x5e1629a0da00] frame= 155 QP=30.00 NAL=0 Slice:B Poc:106 I:0    P:39   SKIP:1161 size=60 bytes
[rawvideo @ 0x5e1629a0c780] PACKET SIZE: 921600, STRIDE: 1920
[libx264 @ 0x5e1629a0da00] frame= 156 QP=20.69 NAL=2 Slice:P Poc:116 I:2    P:111  SKIP:1087 size=371 bytes
frame=  156 fps=8.6 q=29.0 size=     256kB time=00:00:05.13 bitrate= 408.6kbits/s speed=0.284x    [rawvideo @ 0x5e1629a0c780] PACKET SIZE: 921600, STRIDE: 1920
[libx264 @ 0x5e1629a0da00] frame= 157 QP=22.07 NAL=2 Slice:B Poc:112 I:0    P:66   SKIP:1134 size=109 bytes
[rawvideo @ 0x5e1629a0c780] PACKET SIZE: 921600, STRIDE: 1920
[libx264 @ 0x5e1629a0da00] frame= 158 QP=30.00 NAL=0 Slice:B Poc:110 I:0    P:30   SKIP:1170 size=56 bytes
[rawvideo @ 0x5e1629a0c780] PACKET SIZE: 921600, STRIDE: 1920
[libx264 @ 0x5e1629a0da00] frame= 159 QP=30.00 NAL=0 Slice:B Poc:114 I:0    P:21   SKIP:1179 size=47 bytes
[rawvideo @ 0x5e1629a0c780] PACKET SIZE: 921600, STRIDE: 1920
[libx264 @ 0x5e1629a0da00] frame= 160 QP=21.21 NAL=2 Slice:P Poc:124 I:0    P:105  SKIP:1095 size=263 bytes
[rawvideo @ 0x5e1629a0c780] PACKET SIZE: 921600, STRIDE: 1920
[libx264 @ 0x5e1629a0da00] frame= 161 QP=22.21 NAL=2 Slice:B Poc:120 I:0    P:80   SKIP:1120 size=100 bytes
[rawvideo @ 0x5e1629a0c780] PACKET SIZE: 921600, STRIDE: 1920
[libx264 @ 0x5e1629a0da00] frame= 162 QP=30.00 NAL=0 Slice:B Poc:118 I:0    P:44   SKIP:1156 size=64 bytes
frame=  162 fps=8.7 q=29.0 size=     256kB time=00:00:05.33 bitrate= 393.3kbits/s speed=0.286x    [rawvideo @ 0x5e1629a0c780] PACKET SIZE: 921600, STRIDE: 1920
[libx264 @ 0x5e1629a0da00] frame= 163 QP=30.00 NAL=0 Slice:B Poc:122 I:0    P:17   SKIP:1183 size=42 bytes
[rawvideo @ 0x5e1629a0c780] PACKET SIZE: 921600, STRIDE: 1920
[libx264 @ 0x5e1629a0da00] frame= 164 QP=20.94 NAL=2 Slice:P Poc:132 I:0    P:89   SKIP:1111 size=266 bytes
[rawvideo @ 0x5e1629a0c780] PACKET SIZE: 921600, STRIDE: 1920
[libx264 @ 0x5e1629a0da00] frame= 165 QP=22.15 NAL=2 Slice:B Poc:128 I:0    P:50   SKIP:1150 size=91 bytes
[rawvideo @ 0x5e1629a0c780] PACKET SIZE: 921600, STRIDE: 1920
[libx264 @ 0x5e1629a0da00] frame= 166 QP=30.00 NAL=0 Slice:B Poc:126 I:0    P:23   SKIP:1177 size=45 bytes
[rawvideo @ 0x5e1629a0c780] PACKET SIZE: 921600, STRIDE: 1920
[libx264 @ 0x5e1629a0da00] frame= 167 QP=23.39 NAL=0 Slice:B Poc:130 I:0    P:19   SKIP:1181 size=47 bytes
[rawvideo @ 0x5e1629a0c780] PACKET SIZE: 921600, STRIDE: 1920
[libx264 @ 0x5e1629a0da00] frame= 168 QP=21.14 NAL=2 Slice:P Poc:140 I:0    P:77   SKIP:1123 size=260 bytes
[rawvideo @ 0x5e1629a0c780] PACKET SIZE: 921600, STRIDE: 1920
[libx264 @ 0x5e1629a0da00] frame= 169 QP=23.45 NAL=2 Slice:B Poc:136 I:0    P:39   SKIP:1161 size=72 bytes
[rawvideo @ 0x5e1629a0c780] PACKET SIZE: 921600, STRIDE: 1920
[libx264 @ 0x5e1629a0da00] frame= 170 QP=30.00 NAL=0 Slice:B Poc:134 I:0    P:16   SKIP:1184 size=39 bytes
[rawvideo @ 0x5e1629a0c780] PACKET SIZE: 921600, STRIDE: 1920
[libx264 @ 0x5e1629a0da00] frame= 171 QP=23.38 NAL=0 Slice:B Poc:138 I:0    P:18   SKIP:1182 size=45 bytes
frame=  172 fps=9.0 q=29.0 size=     256kB time=00:00:05.63 bitrate= 372.3kbits/s speed=0.294x    [rawvideo @ 0x5e1629a0c780] PACKET SIZE: 921600, STRIDE: 1920
[libx264 @ 0x5e1629a0da00] frame= 172 QP=20.30 NAL=2 Slice:P Poc:148 I:0    P:101  SKIP:1099 size=270 bytes
[rawvideo @ 0x5e1629a0c780] PACKET SIZE: 921600, STRIDE: 1920
[libx264 @ 0x5e1629a0da00] frame= 173 QP=23.31 NAL=2 Slice:B Poc:144 I:0    P:57   SKIP:1143 size=85 bytes
[rawvideo @ 0x5e1629a0c780] PACKET SIZE: 921600, STRIDE: 1920
[libx264 @ 0x5e1629a0da00] frame= 174 QP=23.50 NAL=0 Slice:B Poc:142 I:0    P:45   SKIP:1155 size=70 bytes
[rawvideo @ 0x5e1629a0c780] PACKET SIZE: 921600, STRIDE: 1920
[libx264 @ 0x5e1629a0da00] frame= 175 QP=23.50 NAL=0 Slice:B Poc:146 I:0    P:29   SKIP:1171 size=57 bytes
[rawvideo @ 0x5e1629a0c780] PACKET SIZE: 921600, STRIDE: 1920
[libx264 @ 0x5e1629a0da00] frame= 176 QP=20.47 NAL=2 Slice:P Poc:156 I:0    P:83   SKIP:1117 size=236 bytes
[rawvideo @ 0x5e1629a0c780] PACKET SIZE: 921600, STRIDE: 1920
[libx264 @ 0x5e1629a0da00] frame= 177 QP=21.05 NAL=2 Slice:B Poc:152 I:0    P:50   SKIP:1150 size=79 bytes
[rawvideo @ 0x5e1629a0c780] PACKET SIZE: 921600, STRIDE: 1920
[libx264 @ 0x5e1629a0da00] frame= 178 QP=30.00 NAL=0 Slice:B Poc:150 I:0    P:29   SKIP:1171 size=52 bytes
[rawvideo @ 0x5e1629a0c780] PACKET SIZE: 921600, STRIDE: 1920
[libx264 @ 0x5e1629a0da00] frame= 179 QP=30.00 NAL=0 Slice:B Poc:154 I:0    P:23   SKIP:1177 size=44 bytes
frame=  180 fps=9.1 q=29.0 size=     256kB time=00:00:05.90 bitrate= 355.5kbits/s speed=0.299x    [rawvideo @ 0x5e1629a0c780] PACKET SIZE: 921600, STRIDE: 1920
[libx264 @ 0x5e1629a0da00] frame= 180 QP=20.50 NAL=2 Slice:P Poc:164 I:0    P:83   SKIP:1117 size=237 bytes
[rawvideo @ 0x5e1629a0c780] PACKET SIZE: 921600, STRIDE: 1920
[libx264 @ 0x5e1629a0da00] frame= 181 QP=23.64 NAL=2 Slice:B Poc:160 I:0    P:54   SKIP:1146 size=84 bytes
[rawvideo @ 0x5e1629a0c780] PACKET SIZE: 921600, STRIDE: 1920
[libx264 @ 0x5e1629a0da00] frame= 182 QP=30.00 NAL=0 Slice:B Poc:158 I:0    P:31   SKIP:1169 size=56 bytes
[rawvideo @ 0x5e1629a0c780] PACKET SIZE: 921600, STRIDE: 1920
[libx264 @ 0x5e1629a0da00] frame= 183 QP=30.00 NAL=0 Slice:B Poc:162 I:0    P:25   SKIP:1175 size=49 bytes
[rawvideo @ 0x5e1629a0c780] PACKET SIZE: 921600, STRIDE: 1920
[libx264 @ 0x5e1629a0da00] frame= 184 QP=20.98 NAL=2 Slice:P Poc:172 I:0    P:120  SKIP:1080 size=272 bytes
[rawvideo @ 0x5e1629a0c780] PACKET SIZE: 921600, STRIDE: 1920
[libx264 @ 0x5e1629a0da00] frame= 185 QP=23.38 NAL=2 Slice:B Poc:168 I:0    P:76   SKIP:1124 size=93 bytes
[rawvideo @ 0x5e1629a0c780] PACKET SIZE: 921600, STRIDE: 1920
[libx264 @ 0x5e1629a0da00] frame= 186 QP=30.00 NAL=0 Slice:B Poc:166 I:0    P:43   SKIP:1157 size=66 bytes
[rawvideo @ 0x5e1629a0c780] PACKET SIZE: 921600, STRIDE: 1920
[libx264 @ 0x5e1629a0da00] frame= 187 QP=30.00 NAL=0 Slice:B Poc:170 I:0    P:53   SKIP:1147 size=68 bytes
[rawvideo @ 0x5e1629a0c780] PACKET SIZE: 921600, STRIDE: 1920
[libx264 @ 0x5e1629a0da00] frame= 188 QP=20.63 NAL=2 Slice:P Poc:180 I:0    P:103  SKIP:1097 size=290 bytes
[rawvideo @ 0x5e1629a0c780] PACKET SIZE: 921600, STRIDE: 1920
[libx264 @ 0x5e1629a0da00] frame= 189 QP=22.48 NAL=2 Slice:B Poc:176 I:0    P:41   SKIP:1159 size=79 bytes
[rawvideo @ 0x5e1629a0c780] PACKET SIZE: 921600, STRIDE: 1920
[libx264 @ 0x5e1629a0da00] frame= 190 QP=22.46 NAL=0 Slice:B Poc:174 I:0    P:22   SKIP:1178 size=51 bytes
frame=  190 fps=9.4 q=29.0 size=     256kB time=00:00:06.26 bitrate= 334.7kbits/s speed=0.31x    [rawvideo @ 0x5e1629a0c780] PACKET SIZE: 921600, STRIDE: 1920
[libx264 @ 0x5e1629a0da00] frame= 191 QP=30.00 NAL=0 Slice:B Poc:178 I:0    P:20   SKIP:1180 size=45 bytes
[rawvideo @ 0x5e1629a0c780] PACKET SIZE: 921600, STRIDE: 1920
[libx264 @ 0x5e1629a0da00] frame= 192 QP=21.12 NAL=2 Slice:P Poc:188 I:0    P:105  SKIP:1095 size=284 bytes
[rawvideo @ 0x5e1629a0c780] PACKET SIZE: 921600, STRIDE: 1920
[libx264 @ 0x5e1629a0da00] frame= 193 QP=22.60 NAL=2 Slice:B Poc:184 I:1    P:62   SKIP:1137 size=93 bytes
[rawvideo @ 0x5e1629a0c780] PACKET SIZE: 921600, STRIDE: 1920
[libx264 @ 0x5e1629a0da00] frame= 194 QP=30.00 NAL=0 Slice:B Poc:182 I:0    P:27   SKIP:1173 size=50 bytes
[rawvideo @ 0x5e1629a0c780] PACKET SIZE: 921600, STRIDE: 1920
[libx264 @ 0x5e1629a0da00] frame= 195 QP=22.17 NAL=0 Slice:B Poc:186 I:0    P:30   SKIP:1170 size=59 bytes
[rawvideo @ 0x5e1629a0c780] PACKET SIZE: 921600, STRIDE: 1920
[libx264 @ 0x5e1629a0da00] frame= 196 QP=20.90 NAL=2 Slice:P Poc:196 I:0    P:80   SKIP:1120 size=223 bytes
[rawvideo @ 0x5e1629a0c780] PACKET SIZE: 921600, STRIDE: 1920
[libx264 @ 0x5e1629a0da00] frame= 197 QP=22.07 NAL=2 Slice:B Poc:192 I:0    P:46   SKIP:1154 size=85 bytes
[rawvideo @ 0x5e1629a0c780] PACKET SIZE: 921600, STRIDE: 1920
[libx264 @ 0x5e1629a0da00] frame= 198 QP=30.00 NAL=0 Slice:B Poc:190 I:0    P:15   SKIP:1185 size=38 bytes
[rawvideo @ 0x5e1629a0c780] PACKET SIZE: 921600, STRIDE: 1920
[libx264 @ 0x5e1629a0da00] frame= 199 QP=22.46 NAL=0 Slice:B Poc:194 I:0    P:16   SKIP:1184 size=47 bytes
frame=  200 fps=9.6 q=29.0 size=     256kB time=00:00:06.56 bitrate= 319.4kbits/s speed=0.316x    [rawvideo @ 0x5e1629a0c780] PACKET SIZE: 921600, STRIDE: 1920
[libx264 @ 0x5e1629a0da00] frame= 200 QP=20.33 NAL=2 Slice:P Poc:204 I:0    P:101  SKIP:1099 size=305 bytes
[rawvideo @ 0x5e1629a0c780] PACKET SIZE: 921600, STRIDE: 1920
[libx264 @ 0x5e1629a0da00] frame= 201 QP=22.74 NAL=2 Slice:B Poc:200 I:0    P:45   SKIP:1155 size=80 bytes
[rawvideo @ 0x5e1629a0c780] PACKET SIZE: 921600, STRIDE: 1920
[libx264 @ 0x5e1629a0da00] frame= 202 QP=22.46 NAL=0 Slice:B Poc:198 I:0    P:27   SKIP:1173 size=56 bytes
[rawvideo @ 0x5e1629a0c780] PACKET SIZE: 921600, STRIDE: 1920
[libx264 @ 0x5e1629a0da00] frame= 203 QP=30.00 NAL=0 Slice:B Poc:202 I:0    P:28   SKIP:1172 size=50 bytes
[rawvideo @ 0x5e1629a0c780] PACKET SIZE: 921600, STRIDE: 1920
[libx264 @ 0x5e1629a0da00] frame= 204 QP=20.61 NAL=2 Slice:P Poc:212 I:0    P:83   SKIP:1117 size=250 bytes
[rawvideo @ 0x5e1629a0c780] PACKET SIZE: 921600, STRIDE: 1920
[libx264 @ 0x5e1629a0da00] frame= 205 QP=21.13 NAL=2 Slice:B Poc:208 I:0    P:45   SKIP:1155 size=80 bytes
[rawvideo @ 0x5e1629a0c780] PACKET SIZE: 921600, STRIDE: 1920
[libx264 @ 0x5e1629a0da00] frame= 206 QP=30.00 NAL=0 Slice:B Poc:206 I:0    P:21   SKIP:1179 size=47 bytes
[rawvideo @ 0x5e1629a0c780] PACKET SIZE: 921600, STRIDE: 1920
[libx264 @ 0x5e1629a0da00] frame= 207 QP=23.97 NAL=0 Slice:B Poc:210 I:0    P:24   SKIP:1176 size=53 bytes
[rawvideo @ 0x5e1629a0c780] PACKET SIZE: 921600, STRIDE: 1920
[libx264 @ 0x5e1629a0da00] frame= 208 QP=20.69 NAL=2 Slice:P Poc:220 I:1    P:95   SKIP:1104 size=254 bytes
[rawvideo @ 0x5e1629a0c780] PACKET SIZE: 921600, STRIDE: 1920
[libx264 @ 0x5e1629a0da00] frame= 209 QP=21.10 NAL=2 Slice:B Poc:216 I:0    P:36   SKIP:1164 size=71 bytes
[rawvideo @ 0x5e1629a0c780] PACKET SIZE: 921600, STRIDE: 1920
[libx264 @ 0x5e1629a0da00] frame= 210 QP=30.00 NAL=0 Slice:B Poc:214 I:0    P:18   SKIP:1182 size=40 bytes
[rawvideo @ 0x5e1629a0c780] PACKET SIZE: 921600, STRIDE: 1920
[libx264 @ 0x5e1629a0da00] frame= 211 QP=30.00 NAL=0 Slice:B Poc:218 I:0    P:8    SKIP:1192 size=29 bytes
frame=  211 fps=9.9 q=29.0 size=     256kB time=00:00:06.96 bitrate= 301.1kbits/s speed=0.326x    [rawvideo @ 0x5e1629a0c780] PACKET SIZE: 921600, STRIDE: 1920
[libx264 @ 0x5e1629a0da00] frame= 212 QP=20.34 NAL=2 Slice:P Poc:228 I:0    P:82   SKIP:1118 size=253 bytes
[rawvideo @ 0x5e1629a0c780] PACKET SIZE: 921600, STRIDE: 1920
[libx264 @ 0x5e1629a0da00] frame= 213 QP=22.56 NAL=2 Slice:B Poc:224 I:1    P:31   SKIP:1168 size=74 bytes
[rawvideo @ 0x5e1629a0c780] PACKET SIZE: 921600, STRIDE: 1920
[libx264 @ 0x5e1629a0da00] frame= 214 QP=24.37 NAL=0 Slice:B Poc:222 I:0    P:20   SKIP:1180 size=49 bytes
[vist#0:0/rawvideo @ 0x5e1629a0c600] Decoder thread received EOF packet
[vist#0:0/rawvideo @ 0x5e1629a0c600] Decoder returned EOF, finishing
[vist#0:0/rawvideo @ 0x5e1629a0c600] Terminating decoder thread
[libx264 @ 0x5e1629a0da00] frame= 215 QP=24.16 NAL=0 Slice:B Poc:226 I:0    P:17   SKIP:1183 size=44 bytes
[libx264 @ 0x5e1629a0da00] frame= 216 QP=20.84 NAL=2 Slice:P Poc:236 I:0    P:91   SKIP:1109 size=252 bytes
[libx264 @ 0x5e1629a0da00] frame= 217 QP=22.64 NAL=2 Slice:B Poc:232 I:0    P:34   SKIP:1166 size=71 bytes
[libx264 @ 0x5e1629a0da00] frame= 218 QP=23.51 NAL=0 Slice:B Poc:230 I:0    P:25   SKIP:1175 size=54 bytes
[libx264 @ 0x5e1629a0da00] frame= 219 QP=30.00 NAL=0 Slice:B Poc:234 I:0    P:18   SKIP:1182 size=43 bytes
[libx264 @ 0x5e1629a0da00] frame= 220 QP=20.55 NAL=2 Slice:P Poc:244 I:1    P:110  SKIP:1089 size=264 bytes
[in#0/rawvideo @ 0x5e16299fa3c0] EOF while reading input
[in#0/rawvideo @ 0x5e16299fa3c0] Terminating demuxer thread
[libx264 @ 0x5e1629a0da00] frame= 221 QP=21.00 NAL=2 Slice:B Poc:240 I:0    P:78   SKIP:1122 size=104 bytes
[libx264 @ 0x5e1629a0da00] frame= 222 QP=30.00 NAL=0 Slice:B Poc:238 I:0    P:46   SKIP:1154 size=68 bytes
[libx264 @ 0x5e1629a0da00] frame= 223 QP=23.91 NAL=0 Slice:B Poc:242 I:0    P:36   SKIP:1164 size=60 bytes
[libx264 @ 0x5e1629a0da00] frame= 224 QP=20.07 NAL=2 Slice:P Poc:252 I:1    P:92   SKIP:1107 size=244 bytes
[libx264 @ 0x5e1629a0da00] frame= 225 QP=23.52 NAL=2 Slice:B Poc:248 I:0    P:43   SKIP:1157 size=74 bytes
[libx264 @ 0x5e1629a0da00] frame= 226 QP=28.83 NAL=0 Slice:B Poc:246 I:0    P:33   SKIP:1167 size=60 bytes
[libx264 @ 0x5e1629a0da00] frame= 227 QP=30.00 NAL=0 Slice:B Poc:250 I:0    P:24   SKIP:1176 size=46 bytes
[libx264 @ 0x5e1629a0da00] frame= 228 QP=21.02 NAL=2 Slice:P Poc:260 I:0    P:90   SKIP:1110 size=223 bytes
[libx264 @ 0x5e1629a0da00] frame= 229 QP=23.11 NAL=2 Slice:B Poc:256 I:0    P:50   SKIP:1150 size=83 bytes
[libx264 @ 0x5e1629a0da00] frame= 230 QP=30.00 NAL=0 Slice:B Poc:254 I:0    P:27   SKIP:1173 size=51 bytes
[libx264 @ 0x5e1629a0da00] frame= 231 QP=30.00 NAL=0 Slice:B Poc:258 I:0    P:21   SKIP:1179 size=44 bytes
[libx264 @ 0x5e1629a0da00] frame= 232 QP=20.87 NAL=2 Slice:P Poc:268 I:0    P:99   SKIP:1101 size=208 bytes
[libx264 @ 0x5e1629a0da00] frame= 233 QP=22.04 NAL=2 Slice:B Poc:264 I:0    P:63   SKIP:1137 size=90 bytes
[libx264 @ 0x5e1629a0da00] frame= 234 QP=22.16 NAL=0 Slice:B Poc:262 I:0    P:41   SKIP:1159 size=62 bytes
[libx264 @ 0x5e1629a0da00] frame= 235 QP=22.16 NAL=0 Slice:B Poc:266 I:0    P:31   SKIP:1169 size=51 bytes
[libx264 @ 0x5e1629a0da00] frame= 236 QP=20.45 NAL=2 Slice:P Poc:276 I:0    P:85   SKIP:1115 size=188 bytes
[libx264 @ 0x5e1629a0da00] frame= 237 QP=21.08 NAL=2 Slice:B Poc:272 I:0    P:67   SKIP:1133 size=93 bytes
[libx264 @ 0x5e1629a0da00] frame= 238 QP=30.00 NAL=0 Slice:B Poc:270 I:0    P:47   SKIP:1153 size=61 bytes
[libx264 @ 0x5e1629a0da00] frame= 239 QP=22.46 NAL=0 Slice:B Poc:274 I:0    P:37   SKIP:1163 size=59 bytes
[libx264 @ 0x5e1629a0da00] frame= 240 QP=20.55 NAL=2 Slice:P Poc:284 I:0    P:52   SKIP:1148 size=150 bytes
[libx264 @ 0x5e1629a0da00] frame= 241 QP=22.42 NAL=2 Slice:B Poc:280 I:0    P:35   SKIP:1165 size=70 bytes
[libx264 @ 0x5e1629a0da00] frame= 242 QP=23.06 NAL=0 Slice:B Poc:278 I:0    P:20   SKIP:1180 size=47 bytes
[libx264 @ 0x5e1629a0da00] frame= 243 QP=23.76 NAL=0 Slice:B Poc:282 I:0    P:23   SKIP:1177 size=49 bytes
[libx264 @ 0x5e1629a0da00] frame= 244 QP=20.83 NAL=2 Slice:P Poc:292 I:0    P:72   SKIP:1128 size=166 bytes
[libx264 @ 0x5e1629a0da00] frame= 245 QP=29.00 NAL=2 Slice:B Poc:288 I:0    P:51   SKIP:1149 size=76 bytes
[libx264 @ 0x5e1629a0da00] frame= 246 QP=24.88 NAL=0 Slice:B Poc:286 I:0    P:31   SKIP:1169 size=56 bytes
[libx264 @ 0x5e1629a0da00] frame= 247 QP=23.75 NAL=0 Slice:B Poc:290 I:0    P:26   SKIP:1174 size=52 bytes
[libx264 @ 0x5e1629a0da00] frame= 248 QP=21.13 NAL=2 Slice:P Poc:300 I:0    P:52   SKIP:1148 size=130 bytes
[libx264 @ 0x5e1629a0da00] frame= 249 QP=24.20 NAL=2 Slice:B Poc:296 I:0    P:42   SKIP:1158 size=74 bytes
[libx264 @ 0x5e1629a0da00] frame= 250 QP=30.00 NAL=0 Slice:B Poc:294 I:0    P:19   SKIP:1181 size=41 bytes
[libx264 @ 0x5e1629a0da00] frame= 251 QP=30.00 NAL=0 Slice:B Poc:298 I:0    P:19   SKIP:1181 size=41 bytes
[libx264 @ 0x5e1629a0da00] frame= 252 QP=21.63 NAL=2 Slice:P Poc:308 I:0    P:38   SKIP:1162 size=104 bytes
[libx264 @ 0x5e1629a0da00] frame= 253 QP=23.48 NAL=2 Slice:B Poc:304 I:0    P:20   SKIP:1180 size=48 bytes
[libx264 @ 0x5e1629a0da00] frame= 254 QP=30.00 NAL=0 Slice:B Poc:302 I:0    P:16   SKIP:1184 size=38 bytes
[libx264 @ 0x5e1629a0da00] frame= 255 QP=30.00 NAL=0 Slice:B Poc:306 I:0    P:11   SKIP:1189 size=33 bytes
[libx264 @ 0x5e1629a0da00] frame= 256 QP=22.61 NAL=2 Slice:P Poc:316 I:0    P:19   SKIP:1181 size=67 bytes
[libx264 @ 0x5e1629a0da00] frame= 257 QP=29.00 NAL=2 Slice:B Poc:312 I:1    P:17   SKIP:1182 size=46 bytes
[libx264 @ 0x5e1629a0da00] frame= 258 QP=30.00 NAL=0 Slice:B Poc:310 I:0    P:13   SKIP:1187 size=35 bytes
[libx264 @ 0x5e1629a0da00] frame= 259 QP=30.00 NAL=0 Slice:B Poc:314 I:0    P:13   SKIP:1187 size=35 bytes
[libx264 @ 0x5e1629a0da00] frame= 260 QP=23.28 NAL=2 Slice:P Poc:320 I:1    P:12   SKIP:1187 size=50 bytes
[libx264 @ 0x5e1629a0da00] frame= 261 QP=30.00 NAL=0 Slice:B Poc:318 I:0    P:11   SKIP:1189 size=34 bytes
[out#0/mp4 @ 0x5e1629a0c340] All streams finished
[out#0/mp4 @ 0x5e1629a0c340] Terminating muxer thread
[AVIOContext @ 0x5e1629a10140] Statistics: 290679 bytes written, 2 seeks, 5 writeouts
[out#0/mp4 @ 0x5e1629a0c340] Output file #0 (./../video/output_23-39-16-08-08-2024.mp4):
[out#0/mp4 @ 0x5e1629a0c340]   Output stream #0:0 (video): 262 frames encoded; 262 packets muxed (286684 bytes); 
[out#0/mp4 @ 0x5e1629a0c340]   Total: 262 packets (286684 bytes) muxed
[out#0/mp4 @ 0x5e1629a0c340] video:280kB audio:0kB subtitle:0kB other streams:0kB global headers:0kB muxing overhead: 1.392125%
frame=  262 fps= 12 q=-1.0 Lsize=     284kB time=00:00:08.63 bitrate= 269.4kbits/s speed=0.38x    
[libx264 @ 0x5e1629a0da00] frame I:2     Avg QP:23.72  size: 10205
[libx264 @ 0x5e1629a0da00] frame P:71    Avg QP:22.29  size:  2254
[libx264 @ 0x5e1629a0da00] frame B:189   Avg QP:25.71  size:   559
[libx264 @ 0x5e1629a0da00] consecutive B-frames:  1.5%  6.1%  2.3% 90.1%
[libx264 @ 0x5e1629a0da00] mb I  I16..4: 19.5% 66.2% 14.4%
[libx264 @ 0x5e1629a0da00] mb P  I16..4:  4.1%  9.3%  1.1%  P16..4: 16.6%  2.6%  2.5%  0.0%  0.0%    skip:63.7%
[libx264 @ 0x5e1629a0da00] mb B  I16..4:  0.6%  1.5%  0.1%  B16..8: 10.7%  0.9%  0.1%  direct: 0.8%  skip:85.3%  L0:36.2% L1:62.0% BI: 1.8%
[libx264 @ 0x5e1629a0da00] 8x8 transform intra:65.4% inter:83.8%
[libx264 @ 0x5e1629a0da00] coded y,uvDC,uvAC intra: 41.8% 53.9% 9.0% inter: 3.4% 5.8% 0.0%
[libx264 @ 0x5e1629a0da00] i16 v,h,dc,p: 10%  9%  4% 78%
[libx264 @ 0x5e1629a0da00] i8 v,h,dc,ddl,ddr,vr,hd,vl,hu: 18% 16% 17%  8%  9%  9%  8%  8%  8%
[libx264 @ 0x5e1629a0da00] i4 v,h,dc,ddl,ddr,vr,hd,vl,hu: 20% 22% 18%  9%  6%  6%  5% 10%  4%
[libx264 @ 0x5e1629a0da00] i8c dc,h,v,p: 60% 19% 16%  5%
[libx264 @ 0x5e1629a0da00] Weighted P-Frames: Y:11.3% UV:5.6%
[libx264 @ 0x5e1629a0da00] ref P L0: 67.9% 17.5% 11.1%  2.9%  0.5%
[libx264 @ 0x5e1629a0da00] ref B L0: 88.9% 10.1%  1.0%
[libx264 @ 0x5e1629a0da00] ref B L1: 97.4%  2.6%
[libx264 @ 0x5e1629a0da00] kb/s:261.98
[in#0/rawvideo @ 0x5e16299fa3c0] Input file #0 (fd:):
[in#0/rawvideo @ 0x5e16299fa3c0]   Input stream #0:0 (video): 262 packets read (241459200 bytes); 262 frames decoded; 0 decode errors; 
[in#0/rawvideo @ 0x5e16299fa3c0]   Total: 262 packets (241459200 bytes) demuxed
[AVIOContext @ 0x5e1629a0adc0] Statistics: 241459200 bytes read, 0 seeks
Exiting normally, received signal 2.
